<?xml version="1.0" encoding="utf-8"?>
<!-- Generator: Adobe Illustrator 16.0.0, SVG Export Plug-In . SVG Version: 6.00 Build 0)  -->
<!DOCTYPE svg PUBLIC "-//W3C//DTD SVG 1.1//EN" "http://www.w3.org/Graphics/SVG/1.1/DTD/svg11.dtd">
<svg version="1.1" id="Layer_1" xmlns="http://www.w3.org/2000/svg" xmlns:xlink="http://www.w3.org/1999/xlink" x="0px" y="0px"
	 width="383.697px" height="560px" viewBox="0 0 383.697 560" enable-background="new 0 0 383.697 560" xml:space="preserve">
<g>
	<path fill="#FFFFFF" d="M361.83,311.659l-14.77,43.244c-0.341,1.018,0.925,1.801,1.685,1.033l29.403-29.926
		c2.181-2.209,1.626-5.9-1.101-7.389l-13.786-7.518C362.716,310.804,362.035,311.065,361.83,311.659"/>
	<path fill="#FFFFFF" d="M376.083,314.62c0.438,0.232,0.857-0.355,0.487-0.691l-10.915-9.736c-0.467-0.41-1.207-0.215-1.411,0.375
		l-0.799,2.332c-0.136,0.398,0.039,0.846,0.409,1.051L376.083,314.62z"/>
	<path fill="#FFFFFF" d="M238.033,350.216l-43.385-44.451c-6.065-6.222-15.627-7.424-23.046-2.896l-12.589,7.678
		c38.098,4.965,59.937,35.404,80.373,41.607C239.055,351.456,238.597,350.804,238.033,350.216"/>
	<path fill="#FFFFFF" d="M182.069,406.073l32.938-26.795c-12.521,7.439-26.327,16.625-41.048,23.426l2.901,3.037
		C178.243,407.202,180.511,407.339,182.069,406.073"/>
	<path fill="#FFFFFF" d="M112.454,321.444c10.563-7.379,23.63-11.896,37.903-11.557c1.402,0.029,2.794,0.107,4.158,0.205
		l10.038-6.125c11.118-6.786,17.175-19.492,15.451-32.399l-8.003-59.744c-0.37-2.758-2.795-4.766-5.569-4.622l-46.248,2.453
		c-2.785,0.148-4.976,2.407-5.054,5.194L112.454,321.444z"/>
	<path fill="#FFFFFF" d="M271.613,434.419l20.164-20.518c2.23-2.26,2.23-5.891,0.02-8.16l-36.686-37.602
		c-2.59-1.139-5.16-1.762-7.74-1.719c-5.171,0.084-10.808,1.807-16.835,4.533l-44.251,35.994c-2.639,2.152-2.892,6.086-0.535,8.545
		l30.805,32.334c17.457,0.578,37.115-2.537,51.953-12.506C269.422,434.708,270.552,434.269,271.613,434.419 M264.496,415.585
		c-0.408,0.652-2.677,2.824-3.446,2.824c-1.898,0-2.6-0.682-3.378-2.629c-4.723-11.791-11.723-11.84-20.544-11.84
		c-13.592,0-19.531,6.631-27.563,13.281c-1.996,1.645-3.875,2.891-5.384,1.625c-1.208-1.012-2.22-2.443-2.19-3.506
		c0.058-2.541,0.769-4.098,2.561-5.885c10.398-10.35,21.43-16.475,33.833-16.168c19.784,0.488,20.632,5.141,26.366,16.729
		C265.917,412.366,265.255,414.392,264.496,415.585"/>
	<path fill="#FFFFFF" d="M241.402,465.173L254,452.345c-8.032,3.066-17.272,5.395-26.804,6.65l5.822,6.109
		C235.288,467.489,239.084,467.519,241.402,465.173"/>
	<path fill="#FFFFFF" d="M63.441,369.226c-2.239,1.367-2.727,4.426-1.003,6.412l62.273,72.135c1.509,1.744,4.128,1.977,5.91,0.518
		l42.713-34.74c1.928-1.566,2.112-4.443,0.398-6.23l-3.008-3.17c-11.489,4.971-23.514,8.33-35.917,8.154
		c-22.987-0.346-47.767-8.723-48.507-43.754c-0.106-4.85,0.594-9.727,2.006-14.494L63.441,369.226z"/>
	<path fill="#FFFFFF" d="M182.4,514.583c2.629,3.043,7.302,3.199,10.125,0.322l37.836-38.508c2.6-2.648,2.639-6.883,0.078-9.58
		l-7.04-7.385c-20.495,2.064-41.866-0.949-55.584-12.273c-2.668-2.209-2.766-5.529-0.993-7.453c1.305-1.426,2.443-2.092,4.031-3.004
		c1.985-1.133,4.508-0.689,6.201,0.877c5.005,4.615,18.752,8.889,35.07,10.023l-28.712-30.129c-2.483-2.6-6.543-2.861-9.327-0.594
		l-39.17,31.857c-3.008,2.453-3.407,6.908-0.866,9.844L182.4,514.583z"/>
	<path fill="#FFFFFF" d="M270.124,260.272l-90.576-49.436c-2.064-1.122-4.528,0.574-4.216,2.901l8.295,61.869
		c1.5,11.221,6.582,21.658,14.487,29.759l42.489,43.536c2.035,2.088,5.56,1.207,6.377-1.588l24.526-83.717
		C271.886,262.302,271.312,260.915,270.124,260.272"/>
	<path fill="#FFFFFF" d="M120.263,206.596l45.75-2.422c2.648-0.146,4.625-2.524,4.265-5.16l-6.854-51.21
		c-0.302-2.244-2.2-3.929-4.459-3.953l-37.534-0.465c-2.492-0.029-4.547,1.95-4.605,4.442l-1.363,54.102
		C115.394,204.588,117.604,206.734,120.263,206.596"/>
	<path fill="#FFFFFF" d="M57.492,255.428l-10.904,31.258c-0.419,1.188-0.546,2.463-0.351,3.709l11.226,75.018
		c0.253,1.686,2.152,2.576,3.612,1.686l28.78-17.564c3.856-9.762,10.651-18.801,19.482-25.777l2.6-103.153
		c0.049-1.959-2.151-3.143-3.748-2.025l-48.272,33.649C58.797,253.011,57.94,254.133,57.492,255.428"/>
	<path fill="#FFFFFF" d="M105.931,478.161l68.028,51.115c1.46,1.104,3.515,0.949,4.8-0.355l4.021-4.096
		c1.323-1.361,1.401-3.504,0.155-4.945l-53.569-62.049c-1.295-1.5-3.545-1.695-5.073-0.447l-18.47,15.021
		C103.983,473.905,104.032,476.739,105.931,478.161"/>
	<path fill="#FFFFFF" d="M41.145,302.265l-30.494,87.393c-1.217,3.496,2.619,6.602,5.783,4.668l37.611-22.943
		c0.682-0.414,1.041-1.197,0.925-1.986l-9.989-66.771C44.68,300.579,41.827,300.308,41.145,302.265"/>
	<path fill="#FFFFFF" d="M201.804,550.204c2.678,2.016,5.988-1.529,3.797-4.074l-17.467-20.229
		c-0.535-0.623-1.489-0.656-2.064-0.072l-5.968,6.076c-0.604,0.607-0.526,1.596,0.155,2.111L201.804,550.204z"/>
	<path fill="#FFFFFF" d="M250.807,543.028l18.82-31.443c0.788-1.314,0.604-2.998-0.458-4.109l-29.588-31.059
		c-1.334-1.402-3.564-1.412-4.918-0.039l-43.17,43.93c-1.246,1.275-1.314,3.291-0.146,4.635l18.665,21.619
		C221.267,559.595,241.966,557.798,250.807,543.028"/>
	<path fill="#FFFFFF" d="M276.832,499.562l38.011-63.502c1.471-2.447,1.101-5.572-0.896-7.613L302.4,416.603
		c-2.464-2.518-6.514-2.521-8.978-0.016l-19.54,19.883c0,0.023,0.01,0.043,0.01,0.068c0.204,1.713,0.32,4.289-0.993,5.389
		c-3.106,2.584-7.001,5.014-11.45,7.199l-17.905,18.227c-2.376,2.41-2.405,6.271-0.067,8.734l23.425,24.578
		C269.763,503.669,274.7,503.114,276.832,499.562"/>
	<path fill="#FFFFFF" d="M13.582,408.761l83.469,62.725c1.548,1.164,3.681,1.125,5.18-0.102l19.463-15.822
		c1.841-1.498,2.074-4.215,0.526-6.006l-63.374-73.408c-1.344-1.553-3.622-1.912-5.374-0.842l-39.433,24.059
		C10.603,401.458,10.369,406.345,13.582,408.761"/>
	<path fill="#FFFFFF" d="M166.705,149.368L173.763,202c0.195,1.49,1.101,2.807,2.425,3.53l91.677,50.035
		c2.658,1.451,5.969,0.073,6.825-2.828l6.056-20.683c0.517-1.755-0.029-3.648-1.392-4.866l-91.706-81.821
		c-0.848-0.764-1.947-1.193-3.097-1.203l-13.085-0.165C168.574,143.97,166.326,146.503,166.705,149.368"/>
	<path fill="#FFFFFF" d="M109.007,143.237l-8.363-0.104c-2.356-0.024-4.469,1.456-5.248,3.678l-34.457,98.748
		c-0.33,0.927,0.73,1.73,1.539,1.168l45.322-31.602c2.736-1.904,4.4-5,4.488-8.33l1.471-58.622
		C113.827,145.491,111.694,143.266,109.007,143.237"/>
	<path fill="#FFFFFF" d="M116.582,86.09l-17.808,51.025c-0.497,1.441,0.564,2.953,2.084,2.972l76.041,0.928
		c2.063,0.024,3.048-2.521,1.509-3.899l-58.233-51.958C118.997,84.101,117.107,84.59,116.582,86.09"/>
	<path fill="#FFFFFF" d="M358.695,311.368c0.457-1.344-0.117-2.824-1.363-3.506l-79.253-43.25c-1.636-0.893-3.681-0.046-4.196,1.746
		l-24.857,84.851c-0.194,0.633-0.292,1.285-0.341,1.928c23.026-2.215,49.646-36.559,72.643-37.104
		c12.706-0.303,22.501,11.926,23.445,28.955c0.126,2.316,0.106,4.762-0.039,7.303L358.695,311.368z"/>
	<path fill="#FFFFFF" d="M320.917,425.911l53.112-88.713c0.564-0.955-0.701-1.928-1.471-1.139l-29.871,30.396
		c-5.014,22.525-18.226,45.848-34.515,44.592c-2.229-0.176-4.488-0.936-6.776-2.137c-0.341,1.012-0.117,2.176,0.672,2.994
		l14.205,14.545C317.627,427.843,319.925,427.571,320.917,425.911"/>
	<path fill="#FFFFFF" d="M276.822,260.45l82.126,44.813c0.809,0.449,1.812,0.049,2.113-0.818l0.817-2.404
		c0.195-0.564,0.029-1.192-0.418-1.587l-75.593-67.455c-0.818-0.728-2.113-0.36-2.415,0.687l-7.341,25.047
		C275.917,259.398,276.208,260.116,276.822,260.45"/>
	<path fill="#FFFFFF" d="M91.852,134.311c1.198,1.68,3.788,1.312,4.47-0.638l17.184-49.241c0.682-1.945,0.098-4.104-1.46-5.44
		L29.16,8.141c-0.73-0.624-1.626-1.022-2.57-1.151L9.872,4.731c-4.323-0.582-7.258,4.281-4.727,7.842L91.852,134.311z"/>
	<path fill="#FFFFFF" d="M119.474,79.703l36.064,32.183c1.704,1.517,4.284-0.309,3.427-2.417L140.31,63.939
		c-0.127-0.309-0.321-0.586-0.584-0.806l-20.758-18.051c-1.471-1.283-3.759-0.09-3.545,1.85l3.34,31.395
		C118.821,78.86,119.074,79.35,119.474,79.703"/>
</g>
</svg>
