<?xml version="1.0" encoding="utf-8"?>
<!-- Generator: Adobe Illustrator 16.0.0, SVG Export Plug-In . SVG Version: 6.00 Build 0)  -->
<!DOCTYPE svg PUBLIC "-//W3C//DTD SVG 1.1//EN" "http://www.w3.org/Graphics/SVG/1.1/DTD/svg11.dtd">
<svg version="1.1" id="Layer_1" xmlns="http://www.w3.org/2000/svg" xmlns:xlink="http://www.w3.org/1999/xlink" x="0px" y="0px"
	 width="578.764px" height="214.086px" viewBox="0 0 578.764 214.086" enable-background="new 0 0 578.764 214.086"
	 xml:space="preserve">
<g>
	<path fill="#FFFFFF" d="M23.812,63.81v36.074h32.931c1.164,0,2.172-0.419,3.026-1.257c0.853-0.838,1.279-1.846,1.279-3.025v-27.51
		c0-1.163-0.427-2.168-1.279-3.013c-0.854-0.846-1.862-1.269-3.026-1.269H23.812z M52.553,92.785H32.282V70.907h20.271V92.785z"/>
	<path fill="#FFFFFF" d="M103.457,87.676c0.854-0.83,1.28-1.842,1.28-3.037V68.091c0-1.163-0.427-2.168-1.28-3.013
		c-0.854-0.846-1.862-1.269-3.026-1.269H67.5v36.074h8.471V88.921h13.802l6.655,10.962h9.915l-6.655-10.962h0.743
		C101.595,88.921,102.604,88.506,103.457,87.676 M96.242,81.847H75.971V70.909h20.271V81.847z"/>
	<path fill="#FFFFFF" d="M148.752,98.626c0.838-0.838,1.257-1.846,1.257-3.025V63.81h-8.472v28.975h-20.271V63.81h-8.472v31.792
		c0,1.179,0.419,2.187,1.257,3.025c0.837,0.838,1.846,1.257,3.025,1.257h28.648C146.904,99.883,147.914,99.464,148.752,98.626"/>
	<path fill="#FFFFFF" d="M189.392,88.921c1.18,0,2.191-0.415,3.037-1.245c0.846-0.83,1.269-1.842,1.269-3.037V68.091
		c0-1.163-0.423-2.168-1.269-3.013c-0.846-0.846-1.857-1.269-3.037-1.269H156.46v36.074h8.495V88.921H189.392z M164.955,70.908
		h20.248v10.938h-20.248V70.908z"/>
	<path fill="#FFFFFF" d="M228.891,99.883h8.495V68.091c0-1.163-0.423-2.168-1.268-3.013c-0.846-0.846-1.851-1.269-3.014-1.269
		H204.43c-1.179,0-2.188,0.423-3.024,1.269c-0.838,0.845-1.257,1.85-1.257,3.013v31.792h8.495V88.921h20.246L228.891,99.883
		L228.891,99.883z M208.645,70.908h20.247v10.938h-20.247V70.908z"/>
	<polygon fill="#FFFFFF" points="243.838,63.81 243.838,99.884 281.053,99.884 281.053,92.785 252.311,92.785 252.311,63.81 	"/>
	<path fill="#FFFFFF" d="M415.416,70.908V63.81h-32.933c-1.18,0-2.188,0.423-3.026,1.268c-0.836,0.846-1.256,1.851-1.256,3.014
		v27.509c0,1.18,0.42,2.188,1.256,3.026c0.838,0.838,1.849,1.257,3.026,1.257h32.933v-7.099h-28.72V70.908H415.416z"/>
	<path fill="#FFFFFF" d="M454.822,63.81h-28.674c-1.179,0-2.188,0.423-3.023,1.269c-0.838,0.845-1.258,1.85-1.258,3.013v31.792
		h8.494V88.921h20.248v10.962h8.493V68.091c0-1.163-0.422-2.168-1.268-3.013C456.99,64.232,455.986,63.81,454.822,63.81
		 M450.609,81.847h-20.248V70.909h20.248V81.847z"/>
	<polygon fill="#FFFFFF" points="488.41,92.552 498.348,79.775 502.793,99.883 511.264,99.883 502.793,62.042 488.41,80.636 
		474.027,62.042 465.557,99.883 474.027,99.883 478.473,79.775 	"/>
	<path fill="#FFFFFF" d="M550.648,88.921c1.178,0,2.19-0.415,3.036-1.245c0.847-0.83,1.269-1.842,1.269-3.037V68.091
		c0-1.163-0.422-2.168-1.269-3.013c-0.846-0.846-1.858-1.269-3.036-1.269h-32.933v36.074h8.494V88.921H550.648z M526.211,70.908
		h20.248v10.938h-20.248V70.908z"/>
	<path fill="#FFFFFF" d="M211.382,131.293V118.13h-61.066c-2.187,0-4.058,0.784-5.61,2.353c-1.554,1.568-2.331,3.432-2.331,5.59
		v51.012c0,2.188,0.777,4.057,2.331,5.609c1.553,1.555,3.424,2.33,5.61,2.33h61.066v-13.162h-53.255v-40.567L211.382,131.293
		L211.382,131.293z"/>
	<polygon fill="#FFFFFF" points="286.476,131.293 286.476,118.13 217.425,118.13 217.425,185.023 286.476,185.023 286.476,171.861 
		233.177,171.861 233.177,158.137 270.724,158.137 270.724,144.975 233.177,144.975 233.177,131.293 	"/>
	<path fill="#FFFFFF" d="M353.629,146.27c2.675-1.035,4.013-2.85,4.013-5.438V126.07c0-2.157-0.783-4.021-2.353-5.588
		c-1.569-1.568-3.433-2.354-5.588-2.354h-57.185v66.895h61.111c2.156,0,4.02-0.776,5.588-2.33c1.568-1.555,2.354-3.424,2.354-5.61
		V154.21c0-2.158-0.784-4.021-2.354-5.589C357.647,147.053,355.785,146.27,353.629,146.27 M308.271,131.293h33.621v13.682h-33.621
		V131.293z M345.815,171.861h-37.545v-13.725h37.547v13.725H345.815z"/>
	<path fill="#FFFFFF" d="M428.678,185.023c2.188,0,4.058-0.776,5.611-2.33c1.555-1.553,2.33-3.424,2.33-5.61V118.13H420.91v53.729
		h-37.591V118.13H367.61v58.952c0,2.188,0.775,4.059,2.33,5.609c1.556,1.555,3.425,2.332,5.611,2.332H428.678L428.678,185.023z"/>
	<rect x="62.97" y="118.13" fill="#FFFFFF" width="69.694" height="11.261"/>
	<rect x="97.817" y="137.993" fill="#FFFFFF" width="34.847" height="11.261"/>
	<rect x="115.24" y="157.854" fill="#FFFFFF" width="17.424" height="11.263"/>
	<rect x="446.1" y="118.13" fill="#FFFFFF" width="69.695" height="11.261"/>
	<rect x="446.1" y="137.993" fill="#FFFFFF" width="34.851" height="11.261"/>
	<rect x="446.1" y="157.854" fill="#FFFFFF" width="17.425" height="11.263"/>
	<path fill="#FFFFFF" d="M205.407,204.996c0.229-0.363,0.415-0.705,0.556-1.023c0.141-0.317,0.239-0.615,0.299-0.895
		c0.058-0.278,0.087-0.54,0.087-0.787c0-0.624-0.111-1.203-0.334-1.736c-0.224-0.535-0.537-0.998-0.941-1.39
		c-0.405-0.392-0.892-0.697-1.46-0.92c-0.568-0.224-1.204-0.334-1.903-0.334c-0.603,0-1.179,0.11-1.727,0.334
		c-0.549,0.223-1.031,0.534-1.445,0.937c-0.415,0.399-0.746,0.877-0.992,1.43c-0.246,0.552-0.373,1.152-0.381,1.805h1.852
		c0.014-0.425,0.094-0.801,0.242-1.126c0.146-0.326,0.34-0.599,0.581-0.817c0.238-0.22,0.519-0.387,0.838-0.498
		c0.317-0.113,0.655-0.17,1.013-0.17c0.397,0,0.762,0.064,1.095,0.194c0.332,0.13,0.619,0.31,0.858,0.535
		c0.24,0.226,0.429,0.489,0.565,0.792c0.138,0.301,0.206,0.624,0.206,0.966c0,0.33-0.057,0.646-0.17,0.952
		c-0.112,0.305-0.257,0.598-0.432,0.879s-0.364,0.548-0.566,0.802c-0.201,0.255-0.396,0.49-0.581,0.71l-5.48,6.622v1.511h9.142
		v-1.809h-6.652l4.863-5.79C204.888,205.75,205.179,205.359,205.407,204.996"/>
	<path fill="#FFFFFF" d="M217.202,205.305c-0.462-0.467-1.016-0.837-1.661-1.111c-0.644-0.273-1.35-0.411-2.117-0.411
		c-0.521,0-0.984,0.067-1.389,0.2c-0.405,0.134-0.799,0.33-1.183,0.592v-4.688h7.085v-1.706h-8.781v8.153l1.511,0.235
		c0.309-0.328,0.694-0.592,1.157-0.786c0.462-0.194,0.968-0.293,1.518-0.293c0.485,0,0.94,0.087,1.361,0.263
		c0.422,0.175,0.791,0.415,1.106,0.721c0.314,0.305,0.562,0.664,0.74,1.079c0.178,0.415,0.268,0.865,0.268,1.353
		c0,0.479-0.09,0.932-0.268,1.353c-0.179,0.423-0.424,0.79-0.735,1.104c-0.312,0.315-0.679,0.564-1.1,0.746
		c-0.423,0.183-0.881,0.272-1.373,0.272c-0.392,0-0.762-0.062-1.111-0.181s-0.668-0.287-0.956-0.504s-0.538-0.473-0.751-0.771
		s-0.374-0.622-0.483-0.972l-1.687,0.843c0.185,0.479,0.434,0.922,0.746,1.327c0.312,0.403,0.68,0.752,1.104,1.043
		c0.425,0.292,0.902,0.519,1.431,0.679c0.526,0.161,1.097,0.242,1.707,0.242c0.802,0,1.529-0.141,2.185-0.417
		c0.656-0.276,1.215-0.653,1.681-1.126c0.468-0.475,0.827-1.023,1.08-1.65c0.254-0.627,0.38-1.291,0.38-1.99
		c0-0.69-0.128-1.348-0.385-1.969C218.025,206.312,217.665,205.77,217.202,205.305"/>
	<polygon fill="#FFFFFF" points="235.029,199.957 236.777,199.957 236.777,210.466 236.695,210.959 229.579,198.158 
		225.383,198.158 225.383,199.957 226.864,199.957 226.864,211.999 225.424,211.999 225.424,213.768 230.484,213.768 
		230.484,211.999 228.88,211.999 228.88,200.84 236.129,213.768 238.762,213.768 238.762,199.957 240.089,199.957 240.089,198.177 
		235.029,198.177 	"/>
	<path fill="#FFFFFF" d="M250.69,204.342c-0.466-0.49-1.026-0.869-1.681-1.136c-0.655-0.267-1.377-0.401-2.165-0.401
		c-0.781,0-1.498,0.135-2.149,0.401c-0.651,0.267-1.214,0.649-1.687,1.146c-0.474,0.496-0.841,1.092-1.105,1.784
		c-0.264,0.692-0.399,1.46-0.405,2.304c0.006,0.836,0.14,1.602,0.399,2.293c0.261,0.692,0.625,1.287,1.091,1.785
		c0.467,0.496,1.025,0.883,1.677,1.155c0.65,0.275,1.378,0.411,2.18,0.411c0.788,0,1.51-0.139,2.165-0.416
		c0.654-0.277,1.215-0.667,1.681-1.167c0.466-0.5,0.83-1.099,1.09-1.794c0.262-0.696,0.392-1.459,0.392-2.289
		c0-0.843-0.13-1.611-0.392-2.303C251.521,205.423,251.156,204.833,250.69,204.342 M249.939,210.107
		c-0.171,0.492-0.408,0.912-0.709,1.26c-0.302,0.346-0.657,0.611-1.063,0.797c-0.409,0.186-0.85,0.277-1.322,0.277
		c-0.452,0-0.879-0.096-1.28-0.283c-0.4-0.188-0.754-0.455-1.06-0.801c-0.306-0.349-0.544-0.769-0.72-1.262
		c-0.175-0.494-0.263-1.046-0.263-1.654c0-0.646,0.088-1.219,0.263-1.719c0.176-0.5,0.414-0.919,0.72-1.255
		c0.306-0.336,0.659-0.59,1.06-0.761s0.828-0.257,1.28-0.257c0.473,0,0.915,0.086,1.326,0.257c0.412,0.171,0.767,0.425,1.064,0.761
		c0.297,0.336,0.533,0.755,0.704,1.255c0.172,0.5,0.257,1.072,0.257,1.719C250.196,209.057,250.111,209.613,249.939,210.107"/>
	<polygon fill="#FFFFFF" points="260.655,204.882 261.303,204.882 258.732,212.225 256.1,204.882 257.098,204.882 257.098,203.114 
		253.415,203.114 253.415,204.882 254.26,204.882 257.734,213.932 259.628,213.932 263.113,204.882 264.028,204.882 
		264.028,203.114 260.655,203.114 	"/>
	<path fill="#FFFFFF" d="M275.017,207.904c-0.012-0.266-0.032-0.529-0.067-0.791c-0.069-0.533-0.19-1.059-0.365-1.572
		c-0.175-0.516-0.432-0.973-0.771-1.373c-0.341-0.4-0.778-0.725-1.316-0.966c-0.538-0.244-1.209-0.365-2.011-0.365
		c-0.829,0-1.557,0.146-2.181,0.44c-0.623,0.295-1.146,0.695-1.567,1.199c-0.422,0.504-0.739,1.094-0.951,1.77
		c-0.213,0.675-0.319,1.393-0.319,2.152c0,0.939,0.125,1.764,0.375,2.47s0.598,1.296,1.039,1.769
		c0.442,0.473,0.971,0.83,1.583,1.069c0.614,0.239,1.281,0.358,2,0.358c0.763,0,1.495-0.114,2.201-0.349
		c0.706-0.233,1.409-0.59,2.109-1.069l-0.772-1.307c-0.576,0.329-1.126,0.571-1.649,0.725c-0.525,0.154-1.065,0.232-1.62,0.232
		c-0.706,0-1.339-0.174-1.897-0.521c-0.559-0.346-0.965-0.86-1.219-1.547c-0.082-0.227-0.146-0.465-0.19-0.715
		c-0.045-0.251-0.066-0.527-0.066-0.828h7.671C275.031,208.434,275.026,208.173,275.017,207.904 M267.463,207.195
		c0.068-0.424,0.173-0.809,0.313-1.15c0.14-0.342,0.328-0.632,0.561-0.869c0.233-0.236,0.517-0.418,0.849-0.545
		c0.333-0.127,0.722-0.189,1.168-0.189c0.472,0,0.869,0.067,1.192,0.205c0.322,0.139,0.585,0.33,0.791,0.576
		s0.358,0.537,0.458,0.873s0.163,0.703,0.19,1.102h-5.522V207.195z"/>
	<path fill="#FFFFFF" d="M295.179,206.898c0-0.687-0.085-1.28-0.253-1.784c-0.168-0.505-0.413-0.917-0.735-1.239
		s-0.713-0.562-1.172-0.721c-0.459-0.157-0.978-0.234-1.554-0.234c-0.371,0-0.728,0.047-1.069,0.143
		c-0.343,0.097-0.67,0.224-0.98,0.381c-0.312,0.158-0.613,0.345-0.9,0.562c-0.289,0.216-0.562,0.44-0.822,0.675
		c-0.303-0.604-0.73-1.049-1.286-1.332c-0.556-0.285-1.218-0.427-1.985-0.427c-0.328,0-0.646,0.036-0.951,0.111
		c-0.305,0.075-0.598,0.18-0.879,0.31c-0.281,0.131-0.55,0.282-0.808,0.457c-0.256,0.176-0.501,0.361-0.733,0.561h-0.021v-1.243
		h-3.395v1.769h1.481v7.116h-1.481v1.769h4.979v-1.769h-1.502v-6.242c0.404-0.315,0.833-0.579,1.285-0.791
		c0.453-0.213,0.902-0.319,1.347-0.319c0.774,0,1.37,0.211,1.785,0.633s0.622,1.041,0.622,1.855v4.864h-1.502v1.769h4.967v-1.769
		h-1.471v-6.19c0.344-0.336,0.754-0.613,1.234-0.832c0.48-0.221,0.949-0.33,1.41-0.33c0.772,0,1.367,0.211,1.776,0.633
		c0.412,0.422,0.617,1.041,0.617,1.855v4.864h-1.502v1.769h4.978v-1.769h-1.479V206.898L295.179,206.898z"/>
	<path fill="#FFFFFF" d="M308.293,204.348c-0.422-0.474-0.924-0.84-1.506-1.101s-1.226-0.392-1.925-0.392
		c-0.567,0-1.12,0.104-1.653,0.309c-0.535,0.206-1.028,0.484-1.481,0.833v-6.231h-3.455v1.77h1.543v14.232h1.912V213.1
		c0.33,0.246,0.727,0.446,1.188,0.602c0.465,0.154,0.959,0.23,1.486,0.23c0.762,0,1.461-0.136,2.098-0.406
		c0.639-0.271,1.189-0.656,1.652-1.156c0.461-0.501,0.824-1.1,1.084-1.795s0.391-1.473,0.391-2.329c0-0.802-0.115-1.533-0.35-2.194
		C309.043,205.389,308.715,204.82,308.293,204.348 M307.373,210.045c-0.187,0.492-0.433,0.905-0.74,1.238
		c-0.309,0.332-0.664,0.581-1.069,0.744c-0.404,0.166-0.826,0.248-1.265,0.248c-0.646,0-1.18-0.088-1.604-0.262
		c-0.424-0.176-0.746-0.375-0.967-0.603v-5.728c0.336-0.352,0.733-0.629,1.192-0.834c0.461-0.205,0.938-0.31,1.438-0.31
		c0.453,0,0.879,0.085,1.275,0.253c0.398,0.168,0.746,0.412,1.045,0.734c0.297,0.322,0.535,0.717,0.709,1.184
		c0.174,0.466,0.262,1.001,0.262,1.604C307.649,208.975,307.56,209.551,307.373,210.045"/>
	<path fill="#FFFFFF" d="M321.065,207.904c-0.012-0.266-0.032-0.529-0.067-0.791c-0.067-0.533-0.188-1.059-0.365-1.572
		c-0.174-0.516-0.432-0.973-0.77-1.373c-0.341-0.4-0.779-0.725-1.316-0.966c-0.539-0.244-1.209-0.365-2.012-0.365
		c-0.83,0-1.556,0.146-2.181,0.44c-0.623,0.295-1.146,0.695-1.567,1.199s-0.738,1.094-0.951,1.77
		c-0.213,0.675-0.317,1.393-0.317,2.152c0,0.939,0.125,1.764,0.375,2.47s0.598,1.296,1.039,1.769c0.44,0.473,0.971,0.83,1.584,1.069
		c0.612,0.239,1.278,0.358,2,0.358c0.762,0,1.494-0.114,2.198-0.349c0.707-0.233,1.41-0.59,2.109-1.069l-0.771-1.307
		c-0.576,0.329-1.127,0.571-1.65,0.725c-0.525,0.154-1.064,0.232-1.619,0.232c-0.707,0-1.34-0.174-1.898-0.521
		c-0.559-0.346-0.965-0.86-1.219-1.547c-0.082-0.227-0.145-0.465-0.189-0.715c-0.045-0.251-0.065-0.527-0.065-0.828h7.67
		C321.08,208.434,321.076,208.173,321.065,207.904 M313.515,207.195c0.065-0.424,0.172-0.809,0.312-1.15s0.327-0.632,0.562-0.869
		c0.231-0.236,0.516-0.418,0.848-0.545c0.334-0.127,0.723-0.189,1.168-0.189c0.473,0,0.871,0.067,1.193,0.205
		c0.319,0.139,0.586,0.33,0.791,0.576c0.204,0.246,0.356,0.537,0.456,0.873c0.101,0.336,0.164,0.703,0.191,1.102h-5.521V207.195z"/>
	<path fill="#FFFFFF" d="M329.392,203.032c-0.269,0-0.517,0.038-0.746,0.116c-0.229,0.08-0.438,0.189-0.627,0.33
		c-0.189,0.142-0.361,0.306-0.515,0.494c-0.155,0.188-0.293,0.392-0.418,0.611v-1.471h-3.403v1.769h1.481l-0.013,7.116h-1.471v1.77
		h5.287v-1.77h-1.811v-5.143c0.068-0.369,0.18-0.689,0.334-0.961s0.334-0.494,0.541-0.668c0.205-0.176,0.426-0.306,0.662-0.392
		c0.235-0.086,0.469-0.129,0.695-0.129v0.658h1.952v-2.313c-0.313-0.014-0.631-0.021-0.944-0.021h-1.006V203.032z"/>
	<path fill="#FFFFFF" d="M346.26,204.996c0.229-0.363,0.416-0.705,0.556-1.023c0.143-0.317,0.24-0.615,0.299-0.895
		s0.088-0.54,0.088-0.787c0-0.624-0.111-1.203-0.334-1.736c-0.223-0.535-0.537-0.998-0.941-1.39s-0.891-0.697-1.459-0.92
		c-0.57-0.224-1.205-0.334-1.904-0.334c-0.602,0-1.178,0.11-1.727,0.334c-0.549,0.223-1.031,0.534-1.445,0.937
		c-0.414,0.4-0.746,0.877-0.992,1.43c-0.246,0.552-0.373,1.152-0.381,1.805h1.853c0.014-0.425,0.094-0.801,0.241-1.126
		c0.146-0.326,0.341-0.599,0.58-0.817c0.24-0.22,0.521-0.387,0.838-0.498c0.318-0.113,0.656-0.17,1.015-0.17
		c0.396,0,0.763,0.064,1.095,0.194c0.334,0.13,0.618,0.31,0.858,0.535c0.239,0.226,0.43,0.489,0.565,0.792
		c0.138,0.301,0.205,0.624,0.205,0.966c0,0.33-0.057,0.646-0.17,0.952c-0.113,0.305-0.256,0.598-0.432,0.879
		c-0.174,0.281-0.363,0.548-0.566,0.802c-0.201,0.255-0.395,0.49-0.58,0.71l-5.479,6.622v1.511h9.142v-1.809h-6.652l4.863-5.79
		C345.74,205.75,346.028,205.359,346.26,204.996"/>
	<path fill="#FFFFFF" d="M359.772,200.064c-0.479-0.724-1.082-1.26-1.815-1.608c-0.731-0.351-1.651-0.524-2.756-0.524
		c-1.164,0-2.082,0.221-2.75,0.657c-0.668,0.438-1.224,0.972-1.66,1.595c-0.438,0.623-0.789,1.451-1.049,2.483
		c-0.263,1.032-0.394,2.142-0.394,3.327c0,1.109,0.098,2.148,0.289,3.115s0.512,1.81,0.961,2.529
		c0.449,0.721,1.047,1.284,1.795,1.696c0.746,0.411,1.676,0.617,2.787,0.617c1.117,0,2.053-0.209,2.807-0.627
		c0.755-0.419,1.359-0.989,1.814-1.714c0.457-0.723,0.781-1.57,0.973-2.545c0.192-0.974,0.287-2.02,0.287-3.137
		c0-1.145-0.096-2.228-0.287-3.25C360.584,201.661,360.248,200.789,359.772,200.064 M358.791,208.333
		c-0.125,0.75-0.312,1.407-0.562,1.969s-0.621,1.007-1.11,1.332c-0.49,0.325-1.138,0.489-1.938,0.489
		c-0.803,0-1.449-0.164-1.938-0.489c-0.49-0.325-0.867-0.771-1.132-1.332c-0.264-0.562-0.438-1.219-0.524-1.969
		c-0.084-0.75-0.127-1.551-0.127-2.401c0-0.814,0.065-1.645,0.201-2.488c0.133-0.844,0.315-1.506,0.549-1.989
		s0.586-0.896,1.06-1.239c0.475-0.342,1.116-0.514,1.934-0.514c0.789,0,1.43,0.172,1.924,0.514c0.494,0.344,0.877,0.803,1.152,1.378
		c0.272,0.576,0.459,1.24,0.555,1.99c0.096,0.751,0.143,1.534,0.143,2.351C358.976,206.782,358.914,207.583,358.791,208.333"/>
	<polygon fill="#FFFFFF" points="368.129,197.734 367.306,197.734 362.967,200.163 362.967,202.311 366.123,200.594 
		366.123,211.999 364.61,211.999 364.61,213.768 369.66,213.768 369.66,211.999 368.129,211.999 	"/>
	<path fill="#FFFFFF" d="M371.367,201.366h1.975v-1.203h5.841c-0.369,0.747-0.777,1.585-1.224,2.515
		c-0.444,0.928-0.897,1.907-1.356,2.936c-0.459,1.027-0.912,2.087-1.357,3.174c-0.445,1.086-0.854,2.156-1.225,3.213h-1.203v1.77
		h4.557V212h-1.295c0.369-1.049,0.779-2.111,1.232-3.188s0.92-2.139,1.403-3.188c0.481-1.05,0.972-2.072,1.466-3.07
		c0.493-0.998,0.967-1.941,1.42-2.832v-1.543h-10.232L371.367,201.366L371.367,201.366z"/>
	<polygon fill="#FFFFFF" points="3.511,46.147 281.354,46.147 281.354,42.637 0,42.637 0,207.312 186.571,207.312 186.571,203.803 
		3.511,203.803 	"/>
	<polygon fill="#FFFFFF" points="360.862,42.637 360.862,46.147 575.254,46.147 575.254,203.803 392.192,203.803 392.192,207.312 
		578.764,207.312 578.764,42.637 	"/>
</g>
</svg>
